<svg id="doc-sign" enable-background="new 0 0 300 300" height="512" viewBox="0 0 300 300" width="512" xmlns="http://www.w3.org/2000/svg"><g><circle cx="154" cy="168" fill="#efefd2" r="92"/><g><path d="m245.995 208h-191.99c-4.421 0-8.005-3.584-8.005-8.005v-147.99c0-4.421 3.584-8.005 8.005-8.005h191.99c4.421 0 8.005 3.584 8.005 8.005v147.99c0 4.421-3.584 8.005-8.005 8.005z" fill="#fff"/><path d="m245.996 212h-191.992c-6.617 0-12.004-5.385-12.004-12.004v-147.992c0-6.619 5.387-12.004 12.004-12.004h191.992c6.617 0 12.004 5.385 12.004 12.004v147.992c0 6.619-5.387 12.004-12.004 12.004zm-191.992-164c-2.207 0-4.004 1.797-4.004 4.004v147.992c0 2.207 1.797 4.004 4.004 4.004h191.992c2.207 0 4.004-1.797 4.004-4.004v-147.992c0-2.207-1.797-4.004-4.004-4.004z" fill="#4c241d"/></g><circle cx="60" cy="58" fill="#e66353" r="6"/><circle cx="76" cy="58" fill="#ffce56" r="6"/><circle cx="92" cy="58" fill="#a9ba5a" r="6"/><g fill="#4c241d"><path d="m254 68h-120c-2.211 0-4-1.791-4-4s1.789-4 4-4h120c2.211 0 4 1.791 4 4s-1.789 4-4 4z"/><path d="m100 256c-7.719 0-14-6.281-14-14s6.281-14 14-14 14 6.281 14 14-6.281 14-14 14zm0-20c-3.309 0-6 2.691-6 6s2.691 6 6 6 6-2.691 6-6-2.691-6-6-6z"/><path d="m168.53 226c0 2.502-2.028 4.53-4.53 4.53s-4.53-2.028-4.53-4.53 2.028-4.53 4.53-4.53 4.53 2.028 4.53 4.53z"/></g><g><path d="m167.695 177.393 13.695-13.695-32.352-18.559z" fill="#edebdc"/><path d="m167.695 181.393c-.172 0-.348-.012-.52-.033-1.234-.162-2.32-.889-2.941-1.965l-18.656-32.254c-.906-1.564-.648-3.545.629-4.826 1.273-1.287 3.25-1.545 4.824-.645l32.352 18.561c1.078.619 1.809 1.707 1.973 2.941s-.254 2.475-1.137 3.355l-13.695 13.693c-.754.757-1.774 1.173-2.829 1.173zm-7.75-25.385 8.605 14.873 6.316-6.314z" fill="#4c241d"/></g><g><path d="m168.305 178.447 68.464 68.464c3.905 3.905 10.237 3.905 14.142 0 3.905-3.905 3.905-10.237 0-14.142l-68.464-68.464-1.057-.607-13.695 13.695z" fill="#ffce56"/><path d="m243.84 253.84c-3.738 0-7.254-1.455-9.898-4.098l-68.465-68.467c-.246-.246-.461-.525-.637-.826l-.609-1.055c-.906-1.568-.645-3.551.637-4.83l13.695-13.693c1.277-1.281 3.254-1.539 4.82-.641l1.055.605c.305.176.586.391.836.641l68.465 68.465c2.645 2.643 4.102 6.158 4.102 9.898s-1.457 7.256-4.102 9.9c-2.641 2.646-6.157 4.101-9.899 4.101zm-70.711-76.225 66.469 66.469c2.27 2.27 6.223 2.266 8.484 0 1.133-1.135 1.758-2.641 1.758-4.244 0-1.602-.625-3.109-1.758-4.24l-66.469-66.469z" fill="#4c241d"/></g><path d="m87.258 191.691c-7.828.002-12.27-9.908-14.945-17.479-2.68 1.428-4.547 2.189-4.828 2.303-2.047.811-4.371-.182-5.195-2.225-.82-2.049.172-4.377 2.219-5.201.074-.029 2.316-.953 5.445-2.738-5.34-21.986 3.504-31.814 6.617-34.48 4.66-3.994 10.617-4.988 15.176-2.539 4.461 2.398 6.66 7.557 5.879 13.797-1.562 12.492-10.559 21.355-18.324 26.799.168.508.344 1.021.527 1.541 4.414 12.516 7.477 12.268 7.504 12.221 3.891-.201 11.043-15.422 15.004-31.934.453-1.893 2.219-3.172 4.141-3.059 1.336.084 2.5.822 3.164 1.904 2.895-7.99 5.809-8.412 7.242-8.621 3.246-.445 6.012 1.744 8.102 6.617.508 1.184.941 1.996 1.281 2.547 1.273-2.25 2.84-7.135 3.68-11.74.395-2.174 2.477-3.6 4.648-3.221 2.176.395 3.617 2.477 3.219 4.65-1.516 8.355-4.629 18.461-10.832 19.162-5.375.58-8.285-5.77-9.285-8.102-1.77 4.529-3.852 14.248-4.984 23.887-.238 2.016-1.945 3.533-3.973 3.533-.004 0-.008 0-.012 0-2.035-.006-3.738-1.537-3.965-3.559l-.41-3.699c-3.891 9.729-9.492 19.254-16.605 19.623-.166.01-.33.013-.49.013zm-.946-55.687c-1.297 0-2.918.553-4.539 1.941-4.102 3.514-6.969 11.352-4.664 23.617 5.754-4.525 11.527-11.043 12.578-19.426.359-2.875-.273-4.975-1.73-5.76-.441-.235-1.004-.372-1.645-.372z" fill="#4c241d"/><g><path d="m62 80h56v20h-56z" fill="#9dc1e4"/><path d="m118 104h-56c-2.211 0-4-1.791-4-4v-20c0-2.209 1.789-4 4-4h56c2.211 0 4 1.791 4 4v20c0 2.209-1.789 4-4 4zm-52-8h48v-12h-48z" fill="#4c241d"/></g><g><path d="m134 80h56v32h-56z" fill="#e66353"/><path d="m190 116h-56c-2.211 0-4-1.791-4-4v-32c0-2.209 1.789-4 4-4h56c2.211 0 4 1.791 4 4v32c0 2.209-1.789 4-4 4zm-52-8h48v-24h-48z" fill="#4c241d"/></g><path d="m230 88h-24c-2.211 0-4-1.791-4-4s1.789-4 4-4h24c2.211 0 4 1.791 4 4s-1.789 4-4 4z" fill="#4c241d"/><path d="m222 100h-16c-2.211 0-4-1.791-4-4s1.789-4 4-4h16c2.211 0 4 1.791 4 4s-1.789 4-4 4z" fill="#4c241d"/><path d="m238 112h-32c-2.211 0-4-1.791-4-4s1.789-4 4-4h32c2.211 0 4 1.791 4 4s-1.789 4-4 4z" fill="#4c241d"/></g></svg>