<svg height="512" viewBox="0 0 512 512" width="512" xmlns="http://www.w3.org/2000/svg"><g id="Flat"><circle cx="256" cy="224" fill="#8acce7" r="200"/><path d="m216.91153 280h78.17694a80 80 0 0 1 78.284 63.51916l18.62753 88.48084h-272l18.62755-88.48084a80 80 0 0 1 78.28398-63.51916z" fill="#e88604"/><path d="m368 233.37012a22.63583 22.63583 0 0 1 -22.62988 22.62988h-178.74024a22.62319 22.62319 0 0 1 -16-38.62988 59.37 59.37 0 0 0 17.37012-41.94019v-31.42993a88 88 0 0 1 176 0v31.42993a59.31917 59.31917 0 0 0 17.37012 41.94019 22.584 22.584 0 0 1 6.62988 16z" fill="#2f4054"/><path d="m312 200h16a24 24 0 0 0 24-24 24 24 0 0 0 -24-24h-10.80722a40.50283 40.50283 0 0 1 -38.42435-27.69471v-.00009c-7.29357-21.88071-38.24323-21.88071-45.5368 0v.00009a40.50283 40.50283 0 0 1 -38.42441 27.69471h-10.80722a24 24 0 0 0 -24 24 24 24 0 0 0 24 24z" fill="#f2c194"/><path d="m280 224v56a24 24 0 0 1 -48 0v-56z" fill="#f4ceaf"/><path d="m280 224v36.31982a80.09713 80.09713 0 0 1 -48 0v-36.31982z" fill="#f2c194"/><path d="m192 96h128a0 0 0 0 1 0 0v88.00006a63.99994 63.99994 0 0 1 -63.99994 63.99994h-.00013a63.99994 63.99994 0 0 1 -63.99993-63.99994v-88.00006a0 0 0 0 1 0 0z" fill="#f4ceaf"/><g fill="#2f4054"><circle cx="232" cy="176" r="8"/><circle cx="280" cy="176" r="8"/><path d="m240 168h-16a8 8 0 0 1 0-16h16a8 8 0 0 1 0 16z"/><path d="m288 168h-16a8 8 0 0 1 0-16h16a8 8 0 0 1 0 16z"/></g><path d="m256 227.75293a43.80673 43.80673 0 0 1 -19.57812-4.59766 8.00005 8.00005 0 1 1 7.15624-14.31054 27.9117 27.9117 0 0 0 24.84376 0 8.00005 8.00005 0 1 1 7.15624 14.31054 43.80673 43.80673 0 0 1 -19.57812 4.59766z" fill="#df6080"/><path d="m247.99414 200.002a8.0035 8.0035 0 0 1 -7.14941-11.58007l8-16a8.00005 8.00005 0 1 1 14.31054 7.15624l-8 16a7.99974 7.99974 0 0 1 -7.16113 4.42383z" fill="#f2c194"/><path d="m344 144v14.12012a23.89083 23.89083 0 0 0 -16-6.12012h-10.81006a40.50569 40.50569 0 0 1 -38.41994-27.68994 23.99791 23.99791 0 0 0 -45.54 0 40.51824 40.51824 0 0 1 -38.41994 27.68994h-10.81006a23.89083 23.89083 0 0 0 -16 6.12012v-14.12012a88 88 0 0 1 176 0z" fill="#2f4054"/><path d="m48 376h416v112h-416z" fill="#eedc9a"/><path d="m138.928 401.359-13.856-8-13.072 22.642-13.072-22.642-13.856 8 13.072 22.641h-26.144v16h26.144l-13.072 22.641 13.856 8 13.072-22.642 13.072 22.642 13.856-8-13.072-22.641h26.144v-16h-26.144z" fill="#396795"/><path d="m234.928 401.359-13.856-8-13.072 22.642-13.072-22.642-13.856 8 13.072 22.641h-26.144v16h26.144l-13.072 22.641 13.856 8 13.072-22.642 13.072 22.642 13.856-8-13.072-22.641h26.144v-16h-26.144z" fill="#396795"/><path d="m330.928 401.359-13.856-8-13.072 22.642-13.072-22.642-13.856 8 13.072 22.641h-26.144v16h26.144l-13.072 22.641 13.856 8 13.072-22.642 13.072 22.642 13.856-8-13.072-22.641h26.144v-16h-26.144z" fill="#396795"/><path d="m440 424h-26.144l13.072-22.641-13.856-8-13.072 22.642-13.072-22.642-13.856 8 13.072 22.641h-26.144v16h26.144l-13.072 22.641 13.856 8 13.072-22.642 13.072 22.642 13.856-8-13.072-22.641h26.144z" fill="#396795"/></g></svg>