<svg id="flat" height="512" viewBox="0 0 512 512" width="512" xmlns="http://www.w3.org/2000/svg"><rect fill="#2b93cb" height="400" rx="8" width="336" x="24" y="88"/><path d="m104 112v-19.71853a8 8 0 0 1 3.5624-6.6564l20.4376-13.62507h24v-20a8 8 0 0 1 3.2-6.4l26.66665-20a8 8 0 0 1 4.8-1.6h10.66666a8 8 0 0 1 4.8 1.6l26.66669 20a8 8 0 0 1 3.2 6.4v20h24l20.4376 13.62507a8 8 0 0 1 3.5624 6.6564v19.71853a8 8 0 0 1 -8 8h-160a8 8 0 0 1 -8-8z" fill="#eeba2b"/><circle cx="192" cy="56" fill="#c77708" r="8"/><rect fill="#eeba2b" height="48" rx="8" width="48" x="64" y="320"/><rect fill="#eeba2b" height="48" rx="8" width="48" x="64" y="408"/><path d="m80.759 315.996h62.482v16.009h-62.482z" fill="#195185" transform="matrix(.768 -.64 .64 .768 -181.483 146.834)"/><path d="m80.759 403.996h62.482v16.009h-62.482z" fill="#195185" transform="matrix(.768 -.64 .64 .768 -237.827 167.237)"/><path d="m72 160h72a0 0 0 0 1 0 0v48a0 0 0 0 1 0 0h-80a0 0 0 0 1 0 0v-40a8 8 0 0 1 8-8z" fill="#216ead"/><g fill="#195185"><path d="m168 320h16v16h-16z"/><path d="m200 320h104v16h-104z"/><path d="m152 352h56v16h-56z"/><path d="m224 352h80v16h-80z"/><path d="m168 408h16v16h-16z"/><path d="m200 408h112v16h-112z"/><path d="m152 440h56v16h-56z"/><path d="m224 440h88v16h-88z"/><path d="m320 208h-176v-48h168a8 8 0 0 1 8 8z"/><path d="m64 208h80a0 0 0 0 1 0 0v64a0 0 0 0 1 0 0h-72a8 8 0 0 1 -8-8v-56a0 0 0 0 1 0 0z"/></g><path d="m312 272h-168v-64h176v56a8 8 0 0 1 -8 8z" fill="#0a2b63"/><path d="m448 288v-14.71484a16 16 0 0 0 -8.06178-13.89189l-41.23065-23.56037a16 16 0 0 0 -13.88047-.96374l-32.8271 13.13084v104h87.75212a8.24788 8.24788 0 0 0 8.24788-8.24788z" fill="#d6ac89"/><path d="m304 264-8-24 24-8 168 80-16 32z" fill="#216ead"/><path d="m438.05 341.607 6.21831 2.48157a5.54542 5.54542 0 0 1 3.56214 5.50568 47.63367 47.63367 0 0 1 -7.83045 22.40575 47.63327 47.63327 0 0 0 -8 26.42218v89.57782h-80v-102.11146a8 8 0 0 0 -.84458-3.5777l-14.31084-28.62168a8 8 0 0 1 -.84458-3.5777v-54.11146a16 16 0 0 1 16-16 16 16 0 0 1 16 16v24l13.65686 13.65686a8 8 0 0 0 5.65686 2.34314h21.55883a78.71921 78.71921 0 0 1 29.17745 5.607z" fill="#f5c99d"/></svg>